<svg width="23" height="26" viewBox="0 0 23 26" fill="none" xmlns="http://www.w3.org/2000/svg">
<path d="M22.2075 12.2925C22.3005 12.3854 22.3743 12.4957 22.4246 12.6171C22.4749 12.7385 22.5008 12.8686 22.5008 13C22.5008 13.1314 22.4749 13.2616 22.4246 13.383C22.3743 13.5044 22.3005 13.6146 22.2075 13.7075L11.9513 23.9575C10.6383 25.2703 8.85757 26.0078 7.00084 26.0077C5.14412 26.0076 3.36348 25.2699 2.05066 23.9569C0.737841 22.6439 0.000371105 20.8632 0.000488295 19.0065C0.000605486 17.1497 0.7383 15.3691 2.05129 14.0563L14.4588 1.46627C15.3962 0.527903 16.6679 0.000337754 17.9943 -0.000365507C19.3206 -0.00106877 20.5929 0.525148 21.5313 1.46252C22.4697 2.3999 22.9972 3.67164 22.9979 4.998C22.9986 6.32435 22.4724 7.59665 21.535 8.53502L9.12504 21.125C8.56145 21.6886 7.79707 22.0052 7.00004 22.0052C6.20301 22.0052 5.43862 21.6886 4.87504 21.125C4.31145 20.5614 3.99483 19.7971 3.99483 19C3.99483 18.203 4.31145 17.4386 4.87504 16.875L15.2875 6.29752C15.3787 6.20022 15.4885 6.12215 15.6103 6.06789C15.7322 6.01364 15.8636 5.98431 15.997 5.98163C16.1303 5.97895 16.2629 6.00296 16.3868 6.05227C16.5107 6.10157 16.6235 6.17516 16.7186 6.26872C16.8136 6.36227 16.889 6.47389 16.9403 6.59702C16.9915 6.72014 17.0177 6.85227 17.0171 6.98564C17.0165 7.11901 16.9893 7.25092 16.937 7.3736C16.8847 7.49629 16.8084 7.60727 16.7125 7.70002L6.29879 18.2888C6.20555 18.3813 6.13144 18.4912 6.0807 18.6124C6.02996 18.7335 6.00357 18.8635 6.00305 18.9948C6.00253 19.1261 6.02788 19.2563 6.07765 19.3778C6.12743 19.4994 6.20066 19.6099 6.29316 19.7031C6.38566 19.7964 6.49562 19.8705 6.61676 19.9212C6.7379 19.972 6.86785 19.9984 6.99918 19.9989C7.13052 19.9994 7.26068 19.9741 7.38221 19.9243C7.50375 19.8745 7.6143 19.8013 7.70754 19.7088L20.1163 7.12502C20.6799 6.5626 20.997 5.79932 20.9978 5.00312C20.9986 4.20691 20.6831 3.44298 20.1207 2.8794C19.5582 2.31581 18.795 1.99873 17.9988 1.99791C17.2025 1.99709 16.4386 2.3126 15.875 2.87502L3.47004 15.46C3.00532 15.924 2.63654 16.475 2.38476 17.0815C2.13297 17.688 2.00311 18.3381 2.00259 18.9948C2.00207 19.6515 2.1309 20.3018 2.38171 20.9087C2.63253 21.5156 3.00044 22.0672 3.46441 22.5319C3.92839 22.9966 4.47935 23.3654 5.08585 23.6172C5.69235 23.869 6.3425 23.9988 6.99918 23.9993C7.65587 23.9999 8.30623 23.871 8.91312 23.6202C9.52002 23.3694 10.0716 23.0015 10.5363 22.5375L20.7938 12.2875C20.982 12.1008 21.2366 11.9964 21.5017 11.9974C21.7668 11.9983 22.0207 12.1045 22.2075 12.2925Z" fill="#1E88F9"/>
</svg>
