<svg width="20" height="20" viewBox="0 0 20 20" fill="none" xmlns="http://www.w3.org/2000/svg">
<path d="M4.66044 2.96206C3.34288 2.93773 2.90846 3.43804 2.96142 4.67343C2.46832 4.67343 1.97522 4.66627 1.48284 4.67557C1.12285 4.68273 0.898848 4.9404 1.04556 5.22527C1.12214 5.37415 1.3669 5.50298 1.54653 5.51945C2.00385 5.56024 2.46689 5.53305 2.94711 5.53305V6.62457C2.55492 6.62457 2.16702 6.61168 1.77984 6.62958C1.57301 6.6396 1.34328 6.65821 1.17295 6.7577C1.07347 6.81567 1.00548 7.06189 1.04485 7.18428C1.08349 7.30525 1.26814 7.44339 1.40125 7.45698C1.75336 7.4942 2.11192 7.46915 2.46832 7.46844C2.62005 7.46844 2.77177 7.46844 2.94425 7.46844V8.59861C2.49123 8.59861 2.04393 8.59646 1.59592 8.59861C1.20229 8.60076 1.02338 8.7346 1.02123 9.02019C1.01908 9.31293 1.19442 9.45107 1.58446 9.45393C2.03319 9.45751 2.48192 9.45465 2.94854 9.45465V10.5676C2.47691 10.5676 2.00671 10.5612 1.53795 10.5698C1.15434 10.5769 0.985445 10.7351 1.02409 11.0443C1.06775 11.3908 1.3304 11.423 1.60522 11.4237C2.0425 11.4251 2.48049 11.4237 2.94282 11.4237V12.5238C2.48765 12.5238 2.03963 12.5224 1.59234 12.5238C1.20587 12.5252 1.02338 12.6634 1.02266 12.9504C1.02266 13.2424 1.20015 13.3798 1.58661 13.3813C2.03534 13.3827 2.48335 13.3813 2.96715 13.3813C2.96715 13.7041 2.98433 14.0004 2.9557 14.2917C2.94783 14.3711 2.80469 14.4921 2.71666 14.4985C2.39747 14.5215 2.07542 14.5043 1.7548 14.5021C1.66033 14.5021 1.56443 14.495 1.47067 14.5028C1.22663 14.5243 1.03196 14.598 1.02051 14.8972C1.00763 15.2136 1.2073 15.3217 1.46352 15.341C1.71042 15.3596 1.96091 15.3288 2.20925 15.3252C2.44542 15.3217 2.6816 15.3245 2.95641 15.3245C2.98361 15.822 2.93709 16.3058 3.3071 16.6823C3.68283 17.0652 4.16734 17.0137 4.66903 17.0316C4.66903 17.5083 4.67046 17.9563 4.66903 18.4051C4.66688 18.7974 4.7957 18.9892 5.07338 18.9985C5.35178 19.0078 5.52139 18.783 5.52283 18.3958C5.52497 17.9571 5.52283 17.5183 5.52283 17.0524H6.62497C6.62497 17.4489 6.62497 17.8461 6.62497 18.2441C6.62497 18.3157 6.61566 18.3865 6.61924 18.4574C6.6357 18.8131 6.79243 19.0121 7.05366 18.997C7.39646 18.977 7.47734 18.7294 7.48163 18.4488C7.48807 18.0687 7.47304 17.6887 7.47018 17.3086C7.47018 17.2284 7.48163 17.1475 7.48879 17.0488H8.59522C8.59522 17.441 8.59522 17.839 8.59522 18.2376C8.59522 18.3328 8.58234 18.4287 8.5895 18.5225C8.61025 18.7852 8.71331 18.992 9.01246 18.9949C9.31376 18.9978 9.42755 18.7866 9.44115 18.5261C9.45761 18.2061 9.44401 17.8848 9.44401 17.5641C9.44401 17.4002 9.44401 17.2363 9.44401 17.0488H10.5512C10.5512 17.3794 10.5497 17.7065 10.5512 18.0344C10.5519 18.224 10.5361 18.4166 10.5669 18.602C10.607 18.8446 10.7358 19.0285 11.0221 18.9963C11.3005 18.9656 11.3964 18.7744 11.3978 18.5218C11.4 18.1532 11.3928 17.7846 11.3935 17.416C11.3935 17.3007 11.4042 17.1848 11.4114 17.0473H12.52C12.52 17.3973 12.52 17.7595 12.52 18.1217C12.52 18.2527 12.5178 18.3836 12.5221 18.5139C12.5314 18.7823 12.6374 18.9849 12.9336 18.9928C13.2328 19.0006 13.358 18.788 13.3716 18.5311C13.3931 18.1281 13.3774 17.723 13.3795 17.3193C13.3795 17.2377 13.3888 17.1561 13.3945 17.0495H14.4831C14.4831 17.4503 14.4824 17.8604 14.4831 18.2698C14.4831 18.3872 14.4738 18.5082 14.496 18.622C14.5425 18.856 14.6727 19.0099 14.9354 18.9963C15.2045 18.982 15.3118 18.8016 15.3211 18.569C15.3383 18.1424 15.329 17.7144 15.334 17.2871C15.3347 17.2062 15.3519 17.1254 15.3612 17.0481C16.8212 16.8748 16.9393 16.7575 17.0402 15.3453C17.456 15.3453 17.8768 15.3481 18.2976 15.3439C18.4257 15.3424 18.5911 15.3675 18.6741 15.2995C18.8022 15.195 18.9589 15.0146 18.9467 14.88C18.9353 14.7476 18.7428 14.5487 18.6061 14.5257C18.2826 14.4728 17.9448 14.5107 17.6127 14.505C17.4252 14.5021 17.2377 14.4857 17.0359 14.4742V13.3777C17.509 13.3777 17.9792 13.3777 18.4494 13.3777C18.7099 13.3777 18.9267 13.3054 18.9697 13.0076C19.0119 12.7127 18.8201 12.5274 18.4572 12.5216C17.9949 12.5138 17.5319 12.5195 17.0452 12.5195V11.4222C17.466 11.4222 17.8911 11.433 18.3148 11.4172C18.4866 11.4108 18.6927 11.3943 18.8158 11.297C18.9153 11.2183 18.9861 10.9835 18.9403 10.8704C18.8873 10.7401 18.6977 10.5934 18.5581 10.5834C18.0629 10.549 17.5641 10.5698 17.0445 10.5698V9.44964C17.5154 9.44964 17.9763 9.46896 18.435 9.43962C18.6054 9.42888 18.8258 9.34657 18.9224 9.21988C19.135 8.94145 18.8866 8.60648 18.4708 8.59646C17.9985 8.58501 17.5261 8.5936 17.0423 8.5936V7.47774C17.5226 7.47774 17.982 7.47989 18.4422 7.47703C18.7091 7.47488 18.9503 7.42621 18.9739 7.08909C18.9961 6.77702 18.7821 6.61097 18.3713 6.61311C17.9348 6.61526 17.4982 6.61311 17.0416 6.61311V5.52446C17.4159 5.52446 17.7902 5.52446 18.1652 5.52446C18.2962 5.52446 18.43 5.54092 18.5567 5.51945C18.7965 5.47865 18.9861 5.37343 18.9747 5.08212C18.9632 4.77506 18.7671 4.67271 18.5023 4.66842C18.0185 4.66054 17.534 4.66627 17.0552 4.66627C16.8555 3.1546 16.7897 3.08947 15.3347 2.94202C15.3347 2.51043 15.3397 2.07453 15.3333 1.63864C15.329 1.36164 15.3261 1.06819 14.9483 1.0281C14.6291 0.994465 14.4623 1.2371 14.4745 1.66011C14.4867 2.08455 14.4774 2.50899 14.4774 2.94775H13.3802C13.3802 2.52689 13.3817 2.11533 13.3788 1.70377C13.3781 1.58567 13.3838 1.46257 13.3523 1.35091C13.2872 1.11901 13.1362 0.985876 12.8771 1.02596C12.618 1.06604 12.5236 1.23853 12.5228 1.47831C12.5207 1.95357 12.5228 2.42811 12.5228 2.93272H11.3949C11.3949 2.53548 11.3949 2.14682 11.3949 1.75746C11.3949 1.66226 11.4064 1.56707 11.3978 1.47259C11.3749 1.22852 11.2919 1.03812 10.9985 1.02309C10.7029 1.00806 10.5798 1.19487 10.5605 1.4325C10.5304 1.8097 10.5469 2.19048 10.544 2.56983C10.5433 2.6865 10.544 2.80317 10.544 2.94059H9.44831C9.44831 2.4818 9.47836 2.02014 9.43399 1.56635C9.41538 1.37882 9.27869 1.12402 9.12339 1.04743C8.84785 0.911436 8.59808 1.15193 8.59093 1.51195C8.58234 1.98363 8.58878 2.45603 8.58878 2.94417H7.47519C7.47519 2.5183 7.4759 2.10603 7.47519 1.69375C7.47519 1.58782 7.4802 1.47831 7.45873 1.37596C7.40935 1.13762 7.2748 1.00019 7.00928 1.02381C6.71443 1.04958 6.63355 1.25858 6.62568 1.49406C6.60994 1.96717 6.62067 2.44171 6.62067 2.93845H5.5264C5.5264 2.50255 5.55432 2.05449 5.51352 1.61359C5.49492 1.41533 5.38828 1.15623 5.23512 1.0553C4.97247 0.882807 4.6726 1.13618 4.66545 1.50623C4.65614 1.97934 4.6633 2.45317 4.6633 2.95419L4.66044 2.96206ZM14.0794 15.3045C14.0794 14.5207 14.0787 13.7742 14.0794 13.027C14.0809 12.0643 13.9757 11.9562 13.0317 11.9626C12.9959 11.9626 12.9594 11.9583 12.9251 11.9626C12.233 12.0621 11.6962 11.836 11.2418 11.2877C10.9856 10.9785 10.7838 10.7022 10.8346 10.2835C10.8739 9.96068 10.7437 9.69156 10.5383 9.43675C9.95715 8.71384 9.26295 8.27652 8.29249 8.45617C8.22307 8.46906 8.15007 8.46262 8.07922 8.46262C6.95346 8.46262 5.8277 8.46262 4.6905 8.46262V6.52007C5.34749 6.52007 5.98658 6.5351 6.62497 6.51362C6.96563 6.50217 7.19679 6.64318 7.44513 6.85647C7.63836 7.02252 7.90817 7.1306 8.16081 7.18715C8.40986 7.24298 8.68253 7.21721 8.94232 7.19788C9.32593 7.16925 9.60432 7.2215 9.84193 7.61517C10.1633 8.1484 10.9763 8.18705 11.4429 7.77907C11.921 7.36036 11.9474 6.56731 11.498 6.12068C11.0371 5.6626 10.2119 5.65472 9.86626 6.19368C9.60504 6.60095 9.30517 6.65892 8.9001 6.62242C8.69971 6.60453 8.49145 6.64604 8.29535 6.61097C8.12073 6.57947 7.91175 6.52364 7.79939 6.40268C7.47304 6.05125 7.09874 5.91812 6.62353 5.94031C5.98658 5.96965 5.34677 5.94746 4.70052 5.94746V4.70349H13.4819C13.4933 4.77363 13.5069 4.81944 13.5076 4.86453C13.5076 5.26893 13.484 5.67476 13.5105 6.07702C13.5398 6.52293 13.3738 6.84931 13.036 7.12631C12.7647 7.34819 12.6409 7.65095 12.6624 8.01026C12.6746 8.21139 12.6517 8.41538 12.6681 8.6165C12.6839 8.80761 12.6238 8.91569 12.4434 9.00158C12.062 9.18338 11.8451 9.5026 11.8108 9.92561C11.7685 10.4431 12.1457 10.9821 12.613 11.0973C13.1906 11.239 13.7696 10.9699 13.9771 10.4624C14.204 9.907 14.0229 9.3523 13.5176 9.04094C13.421 8.98154 13.2528 8.90567 13.2543 8.84196C13.2686 8.34094 13.0553 7.78623 13.5792 7.39114C13.9707 7.09625 14.1031 6.68326 14.0845 6.19869C14.0651 5.70483 14.0802 5.20881 14.0802 4.69991H15.2818V15.3045H14.0794ZM9.02463 15.3038C9.02463 14.8836 9.02749 14.4821 9.02391 14.0806C9.0189 13.5559 8.84141 13.3763 8.31468 13.372C7.67486 13.3669 7.03505 13.3705 6.34442 13.3705C6.34442 12.833 6.33726 12.3255 6.34657 11.8181C6.35874 11.1488 6.19556 10.9763 5.51639 10.9735C5.24658 10.972 4.97605 10.9735 4.68978 10.9735V9.02878C4.83435 9.02878 4.96174 9.02878 5.08913 9.02878C6.20701 9.02949 7.32633 9.066 8.44207 9.01732C9.06613 8.99013 9.52631 9.15403 9.93067 9.63645C10.1604 9.91058 10.2799 10.164 10.2921 10.5183C10.3014 10.7888 10.3551 11.1073 10.5104 11.3135C10.7787 11.6699 11.1144 11.9913 11.4722 12.259C11.6826 12.4164 11.9868 12.4887 12.2573 12.5173C12.6517 12.5596 13.0539 12.5281 13.4604 12.5281V15.2988H11.5338C11.5338 14.9917 11.5173 14.7075 11.5374 14.4255C11.5696 13.9861 11.405 13.6504 11.0879 13.3548C10.6793 12.974 10.2935 12.5689 9.89918 12.1724C9.585 11.856 9.21571 11.6141 9.41968 11.0186C9.56782 10.587 9.15989 10.1074 8.68969 9.93205C8.24669 9.76743 7.73856 9.90772 7.4394 10.2778C7.11735 10.6757 7.08944 11.1789 7.36426 11.6026C7.63407 12.0185 8.12645 12.2289 8.60309 12.0736C8.83497 11.9977 8.96522 12.0378 9.12482 12.2046C9.65084 12.7543 10.1962 13.2853 10.7265 13.8315C10.821 13.9288 10.9348 14.0569 10.9441 14.1779C10.9727 14.5508 10.9541 14.9273 10.9541 15.3031H9.02391L9.02463 15.3038ZM5.78405 11.5976C5.78405 12.1702 5.77832 12.7256 5.7862 13.2811C5.79264 13.7391 5.98086 13.9252 6.43674 13.9438C6.59061 13.9503 6.7452 13.9453 6.89979 13.9453C7.40505 13.9453 7.91032 13.9453 8.42417 13.9453V15.2923H4.69622V11.5976H5.78405ZM12.9379 10.5633C12.6538 10.5598 12.3869 10.3014 12.3819 10.0251C12.3761 9.73164 12.6481 9.45823 12.9458 9.45751C13.2464 9.4568 13.5105 9.7295 13.4983 10.0287C13.4869 10.3085 13.2156 10.5669 12.9379 10.5633ZM8.32756 11.5332C8.02196 11.5411 7.75072 11.2841 7.75215 10.9885C7.75359 10.7058 8.0055 10.4524 8.29464 10.4417C8.58234 10.4309 8.87648 10.7094 8.87577 10.9928C8.87505 11.277 8.62242 11.5253 8.32756 11.5332ZM11.2439 6.91588C11.2475 7.21721 11.0156 7.45698 10.7115 7.46486C10.3987 7.47345 10.1454 7.22222 10.1497 6.908C10.154 6.60596 10.398 6.3669 10.6972 6.37191C10.9963 6.37692 11.2396 6.61956 11.2432 6.91516L11.2439 6.91588Z" fill="#F09637"/>
</svg>
