<svg width="20" height="20" viewBox="0 0 20 20" fill="none" xmlns="http://www.w3.org/2000/svg">
<path fill-rule="evenodd" clip-rule="evenodd" d="M2.5 11.5C2.5 11.2239 2.72386 11 3 11H17C17.2761 11 17.5 11.2239 17.5 11.5V17.5C17.5 17.7761 17.2761 18 17 18C16.7239 18 16.5 17.7761 16.5 17.5V12H3.5V17.5C3.5 17.7761 3.27614 18 3 18C2.72386 18 2.5 17.7761 2.5 17.5V11.5Z" fill="#F09637"/>
<path d="M2 11.5C2 10.6716 2.67157 10 3.5 10H16.5C17.3284 10 18 10.6716 18 11.5C18 12.3284 17.3284 13 16.5 13H3.5C2.67157 13 2 12.3284 2 11.5Z" fill="white"/>
<path fill-rule="evenodd" clip-rule="evenodd" d="M16.5 11H3.5C3.22386 11 3 11.2239 3 11.5C3 11.7761 3.22386 12 3.5 12H16.5C16.7761 12 17 11.7761 17 11.5C17 11.2239 16.7761 11 16.5 11ZM3.5 10C2.67157 10 2 10.6716 2 11.5C2 12.3284 2.67157 13 3.5 13H16.5C17.3284 13 18 12.3284 18 11.5C18 10.6716 17.3284 10 16.5 10H3.5Z" fill="#F09637"/>
<path d="M11 5C12.1046 5 13 5.89543 13 7L13 11C13 12.1046 12.1046 13 11 13L9 13C7.89543 13 7 12.1046 7 11L7 7C7 5.89543 7.89543 5 9 5L11 5Z" fill="white"/>
<path fill-rule="evenodd" clip-rule="evenodd" d="M12 11L12 7C12 6.44772 11.5523 6 11 6L9 6C8.44772 6 8 6.44772 8 7L8 11C8 11.5523 8.44772 12 9 12L11 12C11.5523 12 12 11.5523 12 11ZM13 7C13 5.89543 12.1046 5 11 5L9 5C7.89543 5 7 5.89543 7 7L7 11C7 12.1046 7.89543 13 9 13L11 13C12.1046 13 13 12.1046 13 11L13 7Z" fill="#F09637"/>
<path fill-rule="evenodd" clip-rule="evenodd" d="M7.5 14L12.5 14C12.7761 14 13 13.7761 13 13.5C13 13.2239 12.7761 13 12.5 13L7.5 13C7.22386 13 7 13.2239 7 13.5C7 13.7761 7.22386 14 7.5 14ZM14 13.5C14 12.6716 13.3284 12 12.5 12L7.5 12C6.67157 12 6 12.6716 6 13.5C6 14.3284 6.67157 15 7.5 15L12.5 15C13.3284 15 14 14.3284 14 13.5Z" fill="#F09637"/>
<path d="M7.5 8C7.77614 8 8 8.22386 8 8.5C8 8.77614 7.77614 9 7.5 9L2.5 9C2.22386 9 2 8.77614 2 8.5C2 8.22386 2.22386 8 2.5 8L7.5 8Z" fill="#F09637"/>
<path d="M5.5 6C5.77614 6 6 6.22386 6 6.5C6 6.77614 5.77614 7 5.5 7L3.5 7C3.22386 7 3 6.77614 3 6.5C3 6.22386 3.22386 6 3.5 6L5.5 6Z" fill="#F09637"/>
<path fill-rule="evenodd" clip-rule="evenodd" d="M11 15C11 14.4477 10.5523 14 10 14C9.44772 14 9 14.4477 9 15L9 17C9 17.5523 9.44772 18 10 18C10.5523 18 11 17.5523 11 17L11 15Z" fill="#F09637"/>
<path fill-rule="evenodd" clip-rule="evenodd" d="M8.5006 17L11.4994 17L8.5006 17ZM8.5006 17C8.5004 17 8.5002 17 8.5 17C8.22386 17 8 17.2239 8 17.5C8 17.7761 8.22386 18 8.5 18L11.5 18C11.7761 18 12 17.7761 12 17.5C12 17.2239 11.7761 17 11.5 17" fill="#F09637"/>
<path fill-rule="evenodd" clip-rule="evenodd" d="M15.5 5C16.3284 5 17 4.32843 17 3.5C17 2.67157 16.3284 2 15.5 2C14.6716 2 14 2.67157 14 3.5C14 4.32843 14.6716 5 15.5 5ZM15.5 6C16.8807 6 18 4.88071 18 3.5C18 2.11929 16.8807 1 15.5 1C14.1193 1 13 2.11929 13 3.5C13 4.88071 14.1193 6 15.5 6Z" fill="#F09637"/>
</svg>
