<svg width="20" height="20" viewBox="0 0 20 20" fill="none" xmlns="http://www.w3.org/2000/svg">
<mask id="path-1-outside-1_1_410" maskUnits="userSpaceOnUse" x="1" y="1" width="18" height="18" fill="black">
<rect fill="white" x="1" y="1" width="18" height="18"/>
<path d="M16.8338 2C17.2866 2.16739 17.565 2.54224 17.8523 2.89164C18.0287 3.1062 18.0178 3.38629 17.8778 3.63007C17.6081 4.09927 17.3309 4.5647 17.0386 5.01971C16.9646 5.13492 16.8221 5.2063 16.7096 5.29563C16.6904 5.31107 16.6624 5.31775 16.6373 5.3236C16.036 5.46344 15.5916 5.8266 15.1697 6.26407C14.1751 7.29513 13.1478 8.2953 12.1327 9.30674C12.0925 9.34681 12.0403 9.37478 11.9855 9.41402C12.0499 9.48331 12.0867 9.52505 12.126 9.56429C13.0144 10.4518 13.9042 11.3384 14.7905 12.2283C14.8737 12.3118 14.9536 12.3477 15.0748 12.344C16.5227 12.3006 17.7143 13.244 17.9702 14.6662C18.0287 14.9917 17.9861 15.3378 17.9685 15.6734C17.9576 15.8784 17.8255 16.0199 17.629 16.0792C17.4338 16.1376 17.2594 16.0854 17.1139 15.9393C16.7385 15.5628 16.3592 15.1904 15.9875 14.8106C15.9039 14.7254 15.8341 14.6962 15.7166 14.743C15.5235 14.8198 15.3198 14.8699 15.1263 14.9454C15.069 14.9675 15.01 15.0297 14.9874 15.0873C14.908 15.2906 14.8482 15.501 14.7725 15.706C14.7387 15.7978 14.7596 15.8542 14.8286 15.9218C15.2049 16.29 15.5736 16.6657 15.9487 17.0347C16.1096 17.1933 16.1962 17.3699 16.1184 17.5957C16.0415 17.8199 15.8663 17.9083 15.6426 17.9409C14.0488 18.173 12.6131 17.104 12.4002 15.5181C12.3768 15.3441 12.3948 15.1646 12.3835 14.9884C12.3793 14.9275 12.3601 14.8527 12.3195 14.8118C11.6999 14.1861 11.0757 13.565 10.4519 12.943C10.4343 12.9255 10.413 12.9113 10.3875 12.8904C10.1429 13.1116 9.8929 13.1146 9.62489 12.8916C9.59563 13.0908 9.56469 13.2678 9.5442 13.4464C9.51995 13.6568 9.43549 13.8325 9.28498 13.9828C8.08545 15.1783 6.88676 16.3751 5.6889 17.5723C5.44389 17.8169 5.16335 17.8929 4.83137 17.7794C4.79166 17.7656 4.73103 17.7777 4.69298 17.7994C4.13357 18.1229 3.56788 18.054 3.10797 17.6007C2.94825 17.4433 2.79523 17.2793 2.63091 17.1269C2.34577 16.8623 2.08989 16.5805 2 16.1864C2 16.0616 2 15.9364 2 15.8116C2.07359 15.6354 2.14926 15.4605 2.21908 15.2827C2.23205 15.2493 2.23205 15.2034 2.21992 15.1692C2.10411 14.8381 2.18313 14.5589 2.42813 14.3143C3.62766 13.1187 4.82594 11.9228 6.02338 10.7252C6.17389 10.5749 6.3495 10.4906 6.56022 10.4668C6.73875 10.4467 6.91644 10.4159 7.11462 10.3871C6.89386 10.1186 6.89512 9.86902 7.11629 9.6244C7.09581 9.59894 7.08201 9.57807 7.06445 9.56012C6.44148 8.93773 5.81935 8.3145 5.19261 7.69586C5.15206 7.65579 5.07596 7.63868 5.01492 7.6345C4.82803 7.62198 4.63738 7.64035 4.45383 7.61238C2.86212 7.36943 1.82314 5.95308 2.05895 4.3635C2.09115 4.1456 2.18271 3.97779 2.40012 3.90266C2.6259 3.82501 2.80317 3.90934 2.96247 4.07005C3.33249 4.44448 3.70919 4.81182 4.07712 5.18835C4.15071 5.26349 4.21133 5.2781 4.30749 5.24178C4.49731 5.16998 4.69006 5.10444 4.88489 5.04893C4.9936 5.01804 5.04586 4.95918 5.07513 4.85232C5.12195 4.68242 5.17505 4.51211 5.24529 4.35098C5.30968 4.20321 5.27582 4.1097 5.16167 4.00075C4.79625 3.65178 4.44547 3.28736 4.08507 2.93338C3.93037 2.78143 3.85846 2.60653 3.91992 2.39698C3.98389 2.17824 4.15071 2.07347 4.36937 2.04007C4.43543 2.03006 4.50024 2.01378 4.56588 2.00042C4.75361 2.00042 4.94134 2.00042 5.12906 2.00042C5.15331 2.00918 5.17673 2.02212 5.20139 2.02588C6.7099 2.25672 7.70707 3.44473 7.66024 4.96252C7.6569 5.06604 7.68533 5.13533 7.75766 5.20713C8.66326 6.1067 9.56552 7.00961 10.469 7.91084C10.5008 7.94257 10.5355 7.97179 10.597 8.02731C10.6363 7.97346 10.6647 7.9217 10.7048 7.88162C11.7212 6.86476 12.7239 5.83286 13.7641 4.84063C14.2043 4.42027 14.5397 3.97195 14.6434 3.36751C14.6496 3.33203 14.658 3.29321 14.6781 3.26482C14.7554 3.15587 14.8156 3.01478 14.9218 2.94966C15.4582 2.62197 16.0072 2.31474 16.5516 2.00042C16.6456 2.00042 16.7397 2 16.8338 2ZM15.6581 17.4638C15.6715 17.4429 15.6853 17.422 15.6986 17.4012C15.6506 17.369 15.5962 17.344 15.5561 17.3043C15.1856 16.9378 14.819 16.5676 14.4481 16.2015C14.2779 16.0337 14.2303 15.8437 14.3089 15.6179C14.3942 15.3724 14.4749 15.1253 14.556 14.8786C14.6153 14.6979 14.7312 14.5772 14.9155 14.5188C15.1539 14.4432 15.3917 14.3664 15.6263 14.2804C15.8822 14.1861 16.0883 14.2429 16.2769 14.4374C16.6327 14.8039 16.9981 15.1608 17.3597 15.5211C17.3978 15.559 17.4384 15.5941 17.4914 15.6425C17.5065 15.5983 17.5153 15.5799 17.5186 15.5607C17.7799 14.0216 16.5118 12.6604 14.9586 12.8198C14.8006 12.8361 14.6935 12.7935 14.5852 12.6846C13.6587 11.7541 12.7285 10.8274 11.799 9.89949C11.7593 9.85983 11.7175 9.82185 11.6903 9.79597C11.1844 10.3015 10.6852 10.8003 10.1722 11.3129C10.3143 11.4498 10.4695 11.5959 10.6208 11.7458C10.9172 12.0392 10.9381 12.187 10.7258 12.5786C10.7642 12.609 10.8136 12.6404 10.8541 12.6804C11.4524 13.2761 12.044 13.878 12.6503 14.4658C12.815 14.6257 12.8773 14.783 12.8597 15.0135C12.8041 15.7611 13.0675 16.3956 13.6223 16.8969C14.2048 17.4233 14.893 17.594 15.6581 17.4638ZM7.44952 9.28586C7.76184 9.0784 7.96629 9.09677 8.2159 9.34681C8.38355 9.51504 8.54745 9.68702 8.70047 9.84439C9.2185 9.32719 9.7152 8.83086 10.2182 8.32828C10.1885 8.29697 10.1509 8.25522 10.1111 8.21557C9.1746 7.2801 8.23806 6.34464 7.29984 5.41042C7.20911 5.32026 7.16103 5.22884 7.17817 5.09317C7.34457 3.76783 6.33904 2.55644 5.00196 2.47587C4.79542 2.46335 4.58679 2.49132 4.37899 2.5005C4.41244 2.59067 4.45007 2.63283 4.48979 2.67248C4.84726 3.02981 5.20056 3.39172 5.56472 3.74236C5.76625 3.93647 5.81475 4.14811 5.719 4.40733C5.63413 4.6365 5.55887 4.86901 5.48445 5.10194C5.42591 5.28561 5.30508 5.40207 5.12446 5.46135C4.88196 5.54108 4.63821 5.6158 4.39864 5.70263C4.15991 5.78903 3.96465 5.73852 3.7878 5.55903C3.42238 5.18751 3.0511 4.82143 2.68192 4.45367C2.64346 4.41526 2.60248 4.37936 2.5544 4.3347C2.54102 4.36935 2.53391 4.38229 2.53099 4.39648C2.23539 5.82827 3.40858 7.2179 4.89325 7.15905C5.21686 7.14611 5.4464 7.21957 5.63287 7.46753C5.64207 7.48005 5.65461 7.48965 5.6659 7.50092C6.25877 8.0941 6.85122 8.68685 7.44952 9.28586ZM9.84398 10.951C9.88788 10.9005 9.92593 10.8508 9.96983 10.807C11.6105 9.16815 13.2619 7.53933 14.8863 5.88421C15.3353 5.4267 15.8044 5.04767 16.4374 4.90115C16.4475 4.89865 16.4583 4.89573 16.4663 4.88947C16.5411 4.82894 16.6377 4.78177 16.6858 4.70454C16.9429 4.29463 17.1892 3.87761 17.4367 3.46185C17.5362 3.29446 17.5207 3.183 17.3823 3.04191C17.2326 2.88955 17.0817 2.73844 16.9287 2.589C16.7803 2.44373 16.6762 2.43121 16.496 2.53849C16.0929 2.77809 15.6878 3.01394 15.2922 3.26524C15.2044 3.32117 15.1275 3.42511 15.0899 3.52363C15.0029 3.75155 14.9561 3.99407 14.8683 4.22158C14.8139 4.36225 14.7374 4.50835 14.6325 4.61354C12.8225 6.42979 11.0071 8.24061 9.19091 10.0502C9.14784 10.0928 9.08387 10.1145 9.03537 10.1424C9.32804 10.4351 9.57388 10.6809 9.84398 10.951ZM8.90492 13.6798C8.04197 12.8194 7.1811 11.9612 6.35201 11.1347C6.22908 11.2545 6.09027 11.3901 5.95439 11.5225C6.45778 11.8497 6.51339 12.3582 6.07773 12.7935C5.46605 13.4051 4.85395 14.0166 4.24102 14.6273C3.81288 15.0539 3.29695 14.9955 2.96999 14.4854C2.96581 14.4787 2.9541 14.4762 2.91773 14.4566C2.88846 14.4954 2.85794 14.5455 2.81822 14.586C2.57071 14.836 2.57112 14.9408 2.82366 15.1929C3.46168 15.83 4.10806 16.459 4.73438 17.1069C5.11359 17.4993 5.22564 17.3974 5.52793 17.058C5.53086 17.0547 5.53086 17.0484 5.53337 17.0397C5.4995 17.018 5.46396 16.9971 5.42968 16.9737C5.04293 16.7099 4.96935 16.1785 5.2963 15.8446C5.95983 15.1667 6.63088 14.4967 7.31029 13.835C7.63348 13.5203 8.15778 13.5888 8.42202 13.9548C8.45087 13.9949 8.47972 14.0354 8.50355 14.0688C8.64863 13.9281 8.78577 13.795 8.90492 13.6798ZM7.43238 9.99174C8.2991 10.8567 9.15662 11.7124 10.0112 12.5652C10.1287 12.4454 10.2546 12.3168 10.3628 12.2062C9.5095 11.3542 8.64947 10.496 7.78902 9.63776C7.6778 9.74838 7.55237 9.87236 7.43238 9.99174ZM3.64146 14.4775C3.74348 14.4098 3.83379 14.3685 3.89985 14.303C4.5224 13.6873 5.14077 13.0678 5.75998 12.4487C5.78924 12.4195 5.82018 12.3899 5.8436 12.3561C5.92178 12.243 5.90715 12.0935 5.81224 11.9983C5.71482 11.9002 5.57225 11.8856 5.4556 11.9658C5.41755 11.9921 5.3841 12.0263 5.35107 12.0593C4.73856 12.67 4.12646 13.2811 3.51478 13.8931C3.47798 13.9298 3.42363 13.9665 3.41569 14.0104C3.39855 14.1018 3.37722 14.212 3.41318 14.2884C3.4483 14.3639 3.55157 14.4073 3.64146 14.4775ZM8.12935 14.366C8.05744 14.2829 8.00601 14.1869 7.92532 14.1389C7.81327 14.0717 7.69285 14.1072 7.59794 14.202C6.9524 14.8461 6.30643 15.4897 5.66298 16.1359C5.53253 16.2666 5.53295 16.4377 5.65127 16.5517C5.76332 16.6598 5.93307 16.6594 6.05766 16.5358C6.7053 15.8934 7.35043 15.2493 7.99263 14.6019C8.0474 14.5463 8.07416 14.4637 8.12935 14.366ZM6.88676 10.8946C7.63348 11.6398 8.37143 12.3761 9.11439 13.1175C9.14199 12.9221 9.17418 12.718 9.19592 12.513C9.19969 12.4759 9.16875 12.4258 9.13906 12.3962C8.63316 11.8869 8.12517 11.3797 7.6155 10.8746C7.58289 10.8421 7.52645 10.8099 7.48464 10.8141C7.28395 10.8341 7.08494 10.8667 6.88676 10.8946ZM2.56945 15.6308C2.41434 15.8838 2.42604 16.2265 2.63677 16.4548C2.92567 16.7683 3.22838 17.0706 3.54237 17.3594C3.77776 17.5761 4.15782 17.5869 4.36436 17.422C3.76898 16.8276 3.17277 16.2332 2.56945 15.6308Z"/>
</mask>
<path d="M16.8338 2C17.2866 2.16739 17.565 2.54224 17.8523 2.89164C18.0287 3.1062 18.0178 3.38629 17.8778 3.63007C17.6081 4.09927 17.3309 4.5647 17.0386 5.01971C16.9646 5.13492 16.8221 5.2063 16.7096 5.29563C16.6904 5.31107 16.6624 5.31775 16.6373 5.3236C16.036 5.46344 15.5916 5.8266 15.1697 6.26407C14.1751 7.29513 13.1478 8.2953 12.1327 9.30674C12.0925 9.34681 12.0403 9.37478 11.9855 9.41402C12.0499 9.48331 12.0867 9.52505 12.126 9.56429C13.0144 10.4518 13.9042 11.3384 14.7905 12.2283C14.8737 12.3118 14.9536 12.3477 15.0748 12.344C16.5227 12.3006 17.7143 13.244 17.9702 14.6662C18.0287 14.9917 17.9861 15.3378 17.9685 15.6734C17.9576 15.8784 17.8255 16.0199 17.629 16.0792C17.4338 16.1376 17.2594 16.0854 17.1139 15.9393C16.7385 15.5628 16.3592 15.1904 15.9875 14.8106C15.9039 14.7254 15.8341 14.6962 15.7166 14.743C15.5235 14.8198 15.3198 14.8699 15.1263 14.9454C15.069 14.9675 15.01 15.0297 14.9874 15.0873C14.908 15.2906 14.8482 15.501 14.7725 15.706C14.7387 15.7978 14.7596 15.8542 14.8286 15.9218C15.2049 16.29 15.5736 16.6657 15.9487 17.0347C16.1096 17.1933 16.1962 17.3699 16.1184 17.5957C16.0415 17.8199 15.8663 17.9083 15.6426 17.9409C14.0488 18.173 12.6131 17.104 12.4002 15.5181C12.3768 15.3441 12.3948 15.1646 12.3835 14.9884C12.3793 14.9275 12.3601 14.8527 12.3195 14.8118C11.6999 14.1861 11.0757 13.565 10.4519 12.943C10.4343 12.9255 10.413 12.9113 10.3875 12.8904C10.1429 13.1116 9.8929 13.1146 9.62489 12.8916C9.59563 13.0908 9.56469 13.2678 9.5442 13.4464C9.51995 13.6568 9.43549 13.8325 9.28498 13.9828C8.08545 15.1783 6.88676 16.3751 5.6889 17.5723C5.44389 17.8169 5.16335 17.8929 4.83137 17.7794C4.79166 17.7656 4.73103 17.7777 4.69298 17.7994C4.13357 18.1229 3.56788 18.054 3.10797 17.6007C2.94825 17.4433 2.79523 17.2793 2.63091 17.1269C2.34577 16.8623 2.08989 16.5805 2 16.1864C2 16.0616 2 15.9364 2 15.8116C2.07359 15.6354 2.14926 15.4605 2.21908 15.2827C2.23205 15.2493 2.23205 15.2034 2.21992 15.1692C2.10411 14.8381 2.18313 14.5589 2.42813 14.3143C3.62766 13.1187 4.82594 11.9228 6.02338 10.7252C6.17389 10.5749 6.3495 10.4906 6.56022 10.4668C6.73875 10.4467 6.91644 10.4159 7.11462 10.3871C6.89386 10.1186 6.89512 9.86902 7.11629 9.6244C7.09581 9.59894 7.08201 9.57807 7.06445 9.56012C6.44148 8.93773 5.81935 8.3145 5.19261 7.69586C5.15206 7.65579 5.07596 7.63868 5.01492 7.6345C4.82803 7.62198 4.63738 7.64035 4.45383 7.61238C2.86212 7.36943 1.82314 5.95308 2.05895 4.3635C2.09115 4.1456 2.18271 3.97779 2.40012 3.90266C2.6259 3.82501 2.80317 3.90934 2.96247 4.07005C3.33249 4.44448 3.70919 4.81182 4.07712 5.18835C4.15071 5.26349 4.21133 5.2781 4.30749 5.24178C4.49731 5.16998 4.69006 5.10444 4.88489 5.04893C4.9936 5.01804 5.04586 4.95918 5.07513 4.85232C5.12195 4.68242 5.17505 4.51211 5.24529 4.35098C5.30968 4.20321 5.27582 4.1097 5.16167 4.00075C4.79625 3.65178 4.44547 3.28736 4.08507 2.93338C3.93037 2.78143 3.85846 2.60653 3.91992 2.39698C3.98389 2.17824 4.15071 2.07347 4.36937 2.04007C4.43543 2.03006 4.50024 2.01378 4.56588 2.00042C4.75361 2.00042 4.94134 2.00042 5.12906 2.00042C5.15331 2.00918 5.17673 2.02212 5.20139 2.02588C6.7099 2.25672 7.70707 3.44473 7.66024 4.96252C7.6569 5.06604 7.68533 5.13533 7.75766 5.20713C8.66326 6.1067 9.56552 7.00961 10.469 7.91084C10.5008 7.94257 10.5355 7.97179 10.597 8.02731C10.6363 7.97346 10.6647 7.9217 10.7048 7.88162C11.7212 6.86476 12.7239 5.83286 13.7641 4.84063C14.2043 4.42027 14.5397 3.97195 14.6434 3.36751C14.6496 3.33203 14.658 3.29321 14.6781 3.26482C14.7554 3.15587 14.8156 3.01478 14.9218 2.94966C15.4582 2.62197 16.0072 2.31474 16.5516 2.00042C16.6456 2.00042 16.7397 2 16.8338 2ZM15.6581 17.4638C15.6715 17.4429 15.6853 17.422 15.6986 17.4012C15.6506 17.369 15.5962 17.344 15.5561 17.3043C15.1856 16.9378 14.819 16.5676 14.4481 16.2015C14.2779 16.0337 14.2303 15.8437 14.3089 15.6179C14.3942 15.3724 14.4749 15.1253 14.556 14.8786C14.6153 14.6979 14.7312 14.5772 14.9155 14.5188C15.1539 14.4432 15.3917 14.3664 15.6263 14.2804C15.8822 14.1861 16.0883 14.2429 16.2769 14.4374C16.6327 14.8039 16.9981 15.1608 17.3597 15.5211C17.3978 15.559 17.4384 15.5941 17.4914 15.6425C17.5065 15.5983 17.5153 15.5799 17.5186 15.5607C17.7799 14.0216 16.5118 12.6604 14.9586 12.8198C14.8006 12.8361 14.6935 12.7935 14.5852 12.6846C13.6587 11.7541 12.7285 10.8274 11.799 9.89949C11.7593 9.85983 11.7175 9.82185 11.6903 9.79597C11.1844 10.3015 10.6852 10.8003 10.1722 11.3129C10.3143 11.4498 10.4695 11.5959 10.6208 11.7458C10.9172 12.0392 10.9381 12.187 10.7258 12.5786C10.7642 12.609 10.8136 12.6404 10.8541 12.6804C11.4524 13.2761 12.044 13.878 12.6503 14.4658C12.815 14.6257 12.8773 14.783 12.8597 15.0135C12.8041 15.7611 13.0675 16.3956 13.6223 16.8969C14.2048 17.4233 14.893 17.594 15.6581 17.4638ZM7.44952 9.28586C7.76184 9.0784 7.96629 9.09677 8.2159 9.34681C8.38355 9.51504 8.54745 9.68702 8.70047 9.84439C9.2185 9.32719 9.7152 8.83086 10.2182 8.32828C10.1885 8.29697 10.1509 8.25522 10.1111 8.21557C9.1746 7.2801 8.23806 6.34464 7.29984 5.41042C7.20911 5.32026 7.16103 5.22884 7.17817 5.09317C7.34457 3.76783 6.33904 2.55644 5.00196 2.47587C4.79542 2.46335 4.58679 2.49132 4.37899 2.5005C4.41244 2.59067 4.45007 2.63283 4.48979 2.67248C4.84726 3.02981 5.20056 3.39172 5.56472 3.74236C5.76625 3.93647 5.81475 4.14811 5.719 4.40733C5.63413 4.6365 5.55887 4.86901 5.48445 5.10194C5.42591 5.28561 5.30508 5.40207 5.12446 5.46135C4.88196 5.54108 4.63821 5.6158 4.39864 5.70263C4.15991 5.78903 3.96465 5.73852 3.7878 5.55903C3.42238 5.18751 3.0511 4.82143 2.68192 4.45367C2.64346 4.41526 2.60248 4.37936 2.5544 4.3347C2.54102 4.36935 2.53391 4.38229 2.53099 4.39648C2.23539 5.82827 3.40858 7.2179 4.89325 7.15905C5.21686 7.14611 5.4464 7.21957 5.63287 7.46753C5.64207 7.48005 5.65461 7.48965 5.6659 7.50092C6.25877 8.0941 6.85122 8.68685 7.44952 9.28586ZM9.84398 10.951C9.88788 10.9005 9.92593 10.8508 9.96983 10.807C11.6105 9.16815 13.2619 7.53933 14.8863 5.88421C15.3353 5.4267 15.8044 5.04767 16.4374 4.90115C16.4475 4.89865 16.4583 4.89573 16.4663 4.88947C16.5411 4.82894 16.6377 4.78177 16.6858 4.70454C16.9429 4.29463 17.1892 3.87761 17.4367 3.46185C17.5362 3.29446 17.5207 3.183 17.3823 3.04191C17.2326 2.88955 17.0817 2.73844 16.9287 2.589C16.7803 2.44373 16.6762 2.43121 16.496 2.53849C16.0929 2.77809 15.6878 3.01394 15.2922 3.26524C15.2044 3.32117 15.1275 3.42511 15.0899 3.52363C15.0029 3.75155 14.9561 3.99407 14.8683 4.22158C14.8139 4.36225 14.7374 4.50835 14.6325 4.61354C12.8225 6.42979 11.0071 8.24061 9.19091 10.0502C9.14784 10.0928 9.08387 10.1145 9.03537 10.1424C9.32804 10.4351 9.57388 10.6809 9.84398 10.951ZM8.90492 13.6798C8.04197 12.8194 7.1811 11.9612 6.35201 11.1347C6.22908 11.2545 6.09027 11.3901 5.95439 11.5225C6.45778 11.8497 6.51339 12.3582 6.07773 12.7935C5.46605 13.4051 4.85395 14.0166 4.24102 14.6273C3.81288 15.0539 3.29695 14.9955 2.96999 14.4854C2.96581 14.4787 2.9541 14.4762 2.91773 14.4566C2.88846 14.4954 2.85794 14.5455 2.81822 14.586C2.57071 14.836 2.57112 14.9408 2.82366 15.1929C3.46168 15.83 4.10806 16.459 4.73438 17.1069C5.11359 17.4993 5.22564 17.3974 5.52793 17.058C5.53086 17.0547 5.53086 17.0484 5.53337 17.0397C5.4995 17.018 5.46396 16.9971 5.42968 16.9737C5.04293 16.7099 4.96935 16.1785 5.2963 15.8446C5.95983 15.1667 6.63088 14.4967 7.31029 13.835C7.63348 13.5203 8.15778 13.5888 8.42202 13.9548C8.45087 13.9949 8.47972 14.0354 8.50355 14.0688C8.64863 13.9281 8.78577 13.795 8.90492 13.6798ZM7.43238 9.99174C8.2991 10.8567 9.15662 11.7124 10.0112 12.5652C10.1287 12.4454 10.2546 12.3168 10.3628 12.2062C9.5095 11.3542 8.64947 10.496 7.78902 9.63776C7.6778 9.74838 7.55237 9.87236 7.43238 9.99174ZM3.64146 14.4775C3.74348 14.4098 3.83379 14.3685 3.89985 14.303C4.5224 13.6873 5.14077 13.0678 5.75998 12.4487C5.78924 12.4195 5.82018 12.3899 5.8436 12.3561C5.92178 12.243 5.90715 12.0935 5.81224 11.9983C5.71482 11.9002 5.57225 11.8856 5.4556 11.9658C5.41755 11.9921 5.3841 12.0263 5.35107 12.0593C4.73856 12.67 4.12646 13.2811 3.51478 13.8931C3.47798 13.9298 3.42363 13.9665 3.41569 14.0104C3.39855 14.1018 3.37722 14.212 3.41318 14.2884C3.4483 14.3639 3.55157 14.4073 3.64146 14.4775ZM8.12935 14.366C8.05744 14.2829 8.00601 14.1869 7.92532 14.1389C7.81327 14.0717 7.69285 14.1072 7.59794 14.202C6.9524 14.8461 6.30643 15.4897 5.66298 16.1359C5.53253 16.2666 5.53295 16.4377 5.65127 16.5517C5.76332 16.6598 5.93307 16.6594 6.05766 16.5358C6.7053 15.8934 7.35043 15.2493 7.99263 14.6019C8.0474 14.5463 8.07416 14.4637 8.12935 14.366ZM6.88676 10.8946C7.63348 11.6398 8.37143 12.3761 9.11439 13.1175C9.14199 12.9221 9.17418 12.718 9.19592 12.513C9.19969 12.4759 9.16875 12.4258 9.13906 12.3962C8.63316 11.8869 8.12517 11.3797 7.6155 10.8746C7.58289 10.8421 7.52645 10.8099 7.48464 10.8141C7.28395 10.8341 7.08494 10.8667 6.88676 10.8946ZM2.56945 15.6308C2.41434 15.8838 2.42604 16.2265 2.63677 16.4548C2.92567 16.7683 3.22838 17.0706 3.54237 17.3594C3.77776 17.5761 4.15782 17.5869 4.36436 17.422C3.76898 16.8276 3.17277 16.2332 2.56945 15.6308Z" fill="#F09637"/>
<path d="M16.8338 2C17.2866 2.16739 17.565 2.54224 17.8523 2.89164C18.0287 3.1062 18.0178 3.38629 17.8778 3.63007C17.6081 4.09927 17.3309 4.5647 17.0386 5.01971C16.9646 5.13492 16.8221 5.2063 16.7096 5.29563C16.6904 5.31107 16.6624 5.31775 16.6373 5.3236C16.036 5.46344 15.5916 5.8266 15.1697 6.26407C14.1751 7.29513 13.1478 8.2953 12.1327 9.30674C12.0925 9.34681 12.0403 9.37478 11.9855 9.41402C12.0499 9.48331 12.0867 9.52505 12.126 9.56429C13.0144 10.4518 13.9042 11.3384 14.7905 12.2283C14.8737 12.3118 14.9536 12.3477 15.0748 12.344C16.5227 12.3006 17.7143 13.244 17.9702 14.6662C18.0287 14.9917 17.9861 15.3378 17.9685 15.6734C17.9576 15.8784 17.8255 16.0199 17.629 16.0792C17.4338 16.1376 17.2594 16.0854 17.1139 15.9393C16.7385 15.5628 16.3592 15.1904 15.9875 14.8106C15.9039 14.7254 15.8341 14.6962 15.7166 14.743C15.5235 14.8198 15.3198 14.8699 15.1263 14.9454C15.069 14.9675 15.01 15.0297 14.9874 15.0873C14.908 15.2906 14.8482 15.501 14.7725 15.706C14.7387 15.7978 14.7596 15.8542 14.8286 15.9218C15.2049 16.29 15.5736 16.6657 15.9487 17.0347C16.1096 17.1933 16.1962 17.3699 16.1184 17.5957C16.0415 17.8199 15.8663 17.9083 15.6426 17.9409C14.0488 18.173 12.6131 17.104 12.4002 15.5181C12.3768 15.3441 12.3948 15.1646 12.3835 14.9884C12.3793 14.9275 12.3601 14.8527 12.3195 14.8118C11.6999 14.1861 11.0757 13.565 10.4519 12.943C10.4343 12.9255 10.413 12.9113 10.3875 12.8904C10.1429 13.1116 9.8929 13.1146 9.62489 12.8916C9.59563 13.0908 9.56469 13.2678 9.5442 13.4464C9.51995 13.6568 9.43549 13.8325 9.28498 13.9828C8.08545 15.1783 6.88676 16.3751 5.6889 17.5723C5.44389 17.8169 5.16335 17.8929 4.83137 17.7794C4.79166 17.7656 4.73103 17.7777 4.69298 17.7994C4.13357 18.1229 3.56788 18.054 3.10797 17.6007C2.94825 17.4433 2.79523 17.2793 2.63091 17.1269C2.34577 16.8623 2.08989 16.5805 2 16.1864C2 16.0616 2 15.9364 2 15.8116C2.07359 15.6354 2.14926 15.4605 2.21908 15.2827C2.23205 15.2493 2.23205 15.2034 2.21992 15.1692C2.10411 14.8381 2.18313 14.5589 2.42813 14.3143C3.62766 13.1187 4.82594 11.9228 6.02338 10.7252C6.17389 10.5749 6.3495 10.4906 6.56022 10.4668C6.73875 10.4467 6.91644 10.4159 7.11462 10.3871C6.89386 10.1186 6.89512 9.86902 7.11629 9.6244C7.09581 9.59894 7.08201 9.57807 7.06445 9.56012C6.44148 8.93773 5.81935 8.3145 5.19261 7.69586C5.15206 7.65579 5.07596 7.63868 5.01492 7.6345C4.82803 7.62198 4.63738 7.64035 4.45383 7.61238C2.86212 7.36943 1.82314 5.95308 2.05895 4.3635C2.09115 4.1456 2.18271 3.97779 2.40012 3.90266C2.6259 3.82501 2.80317 3.90934 2.96247 4.07005C3.33249 4.44448 3.70919 4.81182 4.07712 5.18835C4.15071 5.26349 4.21133 5.2781 4.30749 5.24178C4.49731 5.16998 4.69006 5.10444 4.88489 5.04893C4.9936 5.01804 5.04586 4.95918 5.07513 4.85232C5.12195 4.68242 5.17505 4.51211 5.24529 4.35098C5.30968 4.20321 5.27582 4.1097 5.16167 4.00075C4.79625 3.65178 4.44547 3.28736 4.08507 2.93338C3.93037 2.78143 3.85846 2.60653 3.91992 2.39698C3.98389 2.17824 4.15071 2.07347 4.36937 2.04007C4.43543 2.03006 4.50024 2.01378 4.56588 2.00042C4.75361 2.00042 4.94134 2.00042 5.12906 2.00042C5.15331 2.00918 5.17673 2.02212 5.20139 2.02588C6.7099 2.25672 7.70707 3.44473 7.66024 4.96252C7.6569 5.06604 7.68533 5.13533 7.75766 5.20713C8.66326 6.1067 9.56552 7.00961 10.469 7.91084C10.5008 7.94257 10.5355 7.97179 10.597 8.02731C10.6363 7.97346 10.6647 7.9217 10.7048 7.88162C11.7212 6.86476 12.7239 5.83286 13.7641 4.84063C14.2043 4.42027 14.5397 3.97195 14.6434 3.36751C14.6496 3.33203 14.658 3.29321 14.6781 3.26482C14.7554 3.15587 14.8156 3.01478 14.9218 2.94966C15.4582 2.62197 16.0072 2.31474 16.5516 2.00042C16.6456 2.00042 16.7397 2 16.8338 2ZM15.6581 17.4638C15.6715 17.4429 15.6853 17.422 15.6986 17.4012C15.6506 17.369 15.5962 17.344 15.5561 17.3043C15.1856 16.9378 14.819 16.5676 14.4481 16.2015C14.2779 16.0337 14.2303 15.8437 14.3089 15.6179C14.3942 15.3724 14.4749 15.1253 14.556 14.8786C14.6153 14.6979 14.7312 14.5772 14.9155 14.5188C15.1539 14.4432 15.3917 14.3664 15.6263 14.2804C15.8822 14.1861 16.0883 14.2429 16.2769 14.4374C16.6327 14.8039 16.9981 15.1608 17.3597 15.5211C17.3978 15.559 17.4384 15.5941 17.4914 15.6425C17.5065 15.5983 17.5153 15.5799 17.5186 15.5607C17.7799 14.0216 16.5118 12.6604 14.9586 12.8198C14.8006 12.8361 14.6935 12.7935 14.5852 12.6846C13.6587 11.7541 12.7285 10.8274 11.799 9.89949C11.7593 9.85983 11.7175 9.82185 11.6903 9.79597C11.1844 10.3015 10.6852 10.8003 10.1722 11.3129C10.3143 11.4498 10.4695 11.5959 10.6208 11.7458C10.9172 12.0392 10.9381 12.187 10.7258 12.5786C10.7642 12.609 10.8136 12.6404 10.8541 12.6804C11.4524 13.2761 12.044 13.878 12.6503 14.4658C12.815 14.6257 12.8773 14.783 12.8597 15.0135C12.8041 15.7611 13.0675 16.3956 13.6223 16.8969C14.2048 17.4233 14.893 17.594 15.6581 17.4638ZM7.44952 9.28586C7.76184 9.0784 7.96629 9.09677 8.2159 9.34681C8.38355 9.51504 8.54745 9.68702 8.70047 9.84439C9.2185 9.32719 9.7152 8.83086 10.2182 8.32828C10.1885 8.29697 10.1509 8.25522 10.1111 8.21557C9.1746 7.2801 8.23806 6.34464 7.29984 5.41042C7.20911 5.32026 7.16103 5.22884 7.17817 5.09317C7.34457 3.76783 6.33904 2.55644 5.00196 2.47587C4.79542 2.46335 4.58679 2.49132 4.37899 2.5005C4.41244 2.59067 4.45007 2.63283 4.48979 2.67248C4.84726 3.02981 5.20056 3.39172 5.56472 3.74236C5.76625 3.93647 5.81475 4.14811 5.719 4.40733C5.63413 4.6365 5.55887 4.86901 5.48445 5.10194C5.42591 5.28561 5.30508 5.40207 5.12446 5.46135C4.88196 5.54108 4.63821 5.6158 4.39864 5.70263C4.15991 5.78903 3.96465 5.73852 3.7878 5.55903C3.42238 5.18751 3.0511 4.82143 2.68192 4.45367C2.64346 4.41526 2.60248 4.37936 2.5544 4.3347C2.54102 4.36935 2.53391 4.38229 2.53099 4.39648C2.23539 5.82827 3.40858 7.2179 4.89325 7.15905C5.21686 7.14611 5.4464 7.21957 5.63287 7.46753C5.64207 7.48005 5.65461 7.48965 5.6659 7.50092C6.25877 8.0941 6.85122 8.68685 7.44952 9.28586ZM9.84398 10.951C9.88788 10.9005 9.92593 10.8508 9.96983 10.807C11.6105 9.16815 13.2619 7.53933 14.8863 5.88421C15.3353 5.4267 15.8044 5.04767 16.4374 4.90115C16.4475 4.89865 16.4583 4.89573 16.4663 4.88947C16.5411 4.82894 16.6377 4.78177 16.6858 4.70454C16.9429 4.29463 17.1892 3.87761 17.4367 3.46185C17.5362 3.29446 17.5207 3.183 17.3823 3.04191C17.2326 2.88955 17.0817 2.73844 16.9287 2.589C16.7803 2.44373 16.6762 2.43121 16.496 2.53849C16.0929 2.77809 15.6878 3.01394 15.2922 3.26524C15.2044 3.32117 15.1275 3.42511 15.0899 3.52363C15.0029 3.75155 14.9561 3.99407 14.8683 4.22158C14.8139 4.36225 14.7374 4.50835 14.6325 4.61354C12.8225 6.42979 11.0071 8.24061 9.19091 10.0502C9.14784 10.0928 9.08387 10.1145 9.03537 10.1424C9.32804 10.4351 9.57388 10.6809 9.84398 10.951ZM8.90492 13.6798C8.04197 12.8194 7.1811 11.9612 6.35201 11.1347C6.22908 11.2545 6.09027 11.3901 5.95439 11.5225C6.45778 11.8497 6.51339 12.3582 6.07773 12.7935C5.46605 13.4051 4.85395 14.0166 4.24102 14.6273C3.81288 15.0539 3.29695 14.9955 2.96999 14.4854C2.96581 14.4787 2.9541 14.4762 2.91773 14.4566C2.88846 14.4954 2.85794 14.5455 2.81822 14.586C2.57071 14.836 2.57112 14.9408 2.82366 15.1929C3.46168 15.83 4.10806 16.459 4.73438 17.1069C5.11359 17.4993 5.22564 17.3974 5.52793 17.058C5.53086 17.0547 5.53086 17.0484 5.53337 17.0397C5.4995 17.018 5.46396 16.9971 5.42968 16.9737C5.04293 16.7099 4.96935 16.1785 5.2963 15.8446C5.95983 15.1667 6.63088 14.4967 7.31029 13.835C7.63348 13.5203 8.15778 13.5888 8.42202 13.9548C8.45087 13.9949 8.47972 14.0354 8.50355 14.0688C8.64863 13.9281 8.78577 13.795 8.90492 13.6798ZM7.43238 9.99174C8.2991 10.8567 9.15662 11.7124 10.0112 12.5652C10.1287 12.4454 10.2546 12.3168 10.3628 12.2062C9.5095 11.3542 8.64947 10.496 7.78902 9.63776C7.6778 9.74838 7.55237 9.87236 7.43238 9.99174ZM3.64146 14.4775C3.74348 14.4098 3.83379 14.3685 3.89985 14.303C4.5224 13.6873 5.14077 13.0678 5.75998 12.4487C5.78924 12.4195 5.82018 12.3899 5.8436 12.3561C5.92178 12.243 5.90715 12.0935 5.81224 11.9983C5.71482 11.9002 5.57225 11.8856 5.4556 11.9658C5.41755 11.9921 5.3841 12.0263 5.35107 12.0593C4.73856 12.67 4.12646 13.2811 3.51478 13.8931C3.47798 13.9298 3.42363 13.9665 3.41569 14.0104C3.39855 14.1018 3.37722 14.212 3.41318 14.2884C3.4483 14.3639 3.55157 14.4073 3.64146 14.4775ZM8.12935 14.366C8.05744 14.2829 8.00601 14.1869 7.92532 14.1389C7.81327 14.0717 7.69285 14.1072 7.59794 14.202C6.9524 14.8461 6.30643 15.4897 5.66298 16.1359C5.53253 16.2666 5.53295 16.4377 5.65127 16.5517C5.76332 16.6598 5.93307 16.6594 6.05766 16.5358C6.7053 15.8934 7.35043 15.2493 7.99263 14.6019C8.0474 14.5463 8.07416 14.4637 8.12935 14.366ZM6.88676 10.8946C7.63348 11.6398 8.37143 12.3761 9.11439 13.1175C9.14199 12.9221 9.17418 12.718 9.19592 12.513C9.19969 12.4759 9.16875 12.4258 9.13906 12.3962C8.63316 11.8869 8.12517 11.3797 7.6155 10.8746C7.58289 10.8421 7.52645 10.8099 7.48464 10.8141C7.28395 10.8341 7.08494 10.8667 6.88676 10.8946ZM2.56945 15.6308C2.41434 15.8838 2.42604 16.2265 2.63677 16.4548C2.92567 16.7683 3.22838 17.0706 3.54237 17.3594C3.77776 17.5761 4.15782 17.5869 4.36436 17.422C3.76898 16.8276 3.17277 16.2332 2.56945 15.6308Z" stroke="#F09637" stroke-width="0.3" mask="url(#path-1-outside-1_1_410)"/>
<path d="M14.0085 13.0367C13.891 12.8707 13.6634 12.8615 13.5155 12.9795C13.3195 13.1354 13.1294 13.3064 12.9648 13.4959L12.9648 13.4959L12.9645 13.4963C12.9156 13.5533 12.9015 13.6324 12.9001 13.6946C12.8987 13.7598 12.9106 13.8313 12.9369 13.8884L12.937 13.8885C12.9678 13.9551 13.0301 13.9962 13.0722 14.021C13.0916 14.0324 13.1117 14.0431 13.1289 14.0521C13.132 14.0538 13.135 14.0554 13.1379 14.0569C13.1583 14.0678 13.1726 14.0758 13.183 14.0828L13.2213 14.1087L13.2658 14.0964C13.2937 14.0887 13.3156 14.0842 13.3378 14.0798C13.3474 14.0778 13.3571 14.0759 13.3673 14.0737C13.3941 14.0678 13.4399 14.0576 13.4763 14.0248L13.4765 14.0247C13.5133 13.9914 13.5511 13.958 13.5892 13.9241C13.7497 13.7819 13.9173 13.6333 14.0561 13.4653L14.0562 13.4651C14.0868 13.4279 14.0964 13.3829 14.0991 13.3478C14.1019 13.311 14.098 13.2726 14.0908 13.237C14.0769 13.167 14.0472 13.0912 14.0085 13.0367ZM14.0085 13.0367C14.0085 13.0367 14.0085 13.0367 14.0084 13.0366L13.9269 13.0946L14.0086 13.0368C14.0085 13.0368 14.0085 13.0368 14.0085 13.0367Z" fill="#F09637" stroke="#F09637" stroke-width="0.2"/>
<path d="M6.02338 6.85721L5.93091 6.89528C5.95889 6.96323 6.02292 7.01042 6.07544 7.03917C6.1316 7.06993 6.19801 7.09237 6.25748 7.09893L6.25749 7.09893C6.30562 7.10423 6.35295 7.08897 6.39036 7.07227C6.43025 7.05446 6.47206 7.02892 6.51345 6.99944C6.59647 6.94031 6.68693 6.85873 6.77041 6.77024C6.85397 6.68168 6.93327 6.58329 6.9927 6.4893C7.04929 6.39982 7.09826 6.29845 7.09998 6.20804L7.10192 6.10614H7.05298C7.04325 6.09061 7.03108 6.07137 7.0173 6.05206C6.9881 6.01114 6.94085 5.95376 6.87163 5.92599L6.87163 5.92599L6.87134 5.92587C6.80998 5.90147 6.73562 5.89596 6.66954 5.90261C6.60457 5.90915 6.52987 5.92925 6.47463 5.97301L6.47463 5.97301L6.47445 5.97315C6.28955 6.12025 6.11548 6.29093 5.96959 6.47977M6.02338 6.85721L5.93101 6.89553C5.90504 6.83293 5.89656 6.75576 5.90122 6.68602C5.90577 6.61799 5.9241 6.53843 5.96959 6.47977M6.02338 6.85721C5.98623 6.76767 5.99242 6.61345 6.04866 6.54099M6.02338 6.85721C6.05278 6.92863 6.17918 6.98969 6.26843 6.99953C6.4215 7.01639 6.86848 6.57796 6.97638 6.30614H6.99948H7V6.20614L6.9995 6.20613L6.04866 6.54099M5.96959 6.47977C5.96961 6.47974 5.96963 6.47971 5.96966 6.47968L6.04866 6.54099M5.96959 6.47977C5.96956 6.4798 5.96954 6.47983 5.96952 6.47986L6.04866 6.54099M6.99948 6.20613L6.99948 6.20613C6.99127 6.19604 6.98184 6.18097 6.97096 6.16358C6.93944 6.11322 6.89575 6.04342 6.83439 6.0188L6.99948 6.20613Z" fill="#F09637" stroke="#F09637" stroke-width="0.2"/>
</svg>
