<svg width="20" height="20" viewBox="0 0 20 20" fill="none" xmlns="http://www.w3.org/2000/svg">
<rect x="1" y="2" width="1" height="17" rx="0.5" fill="#F09637"/>
<path d="M15.5 16C15.7761 16 16 16.2239 16 16.5C16 16.7761 15.7761 17 15.5 17L3.5 17C3.22386 17 3 16.7761 3 16.5C3 16.2239 3.22386 16 3.5 16L15.5 16Z" fill="#F09637"/>
<path d="M15.5 8C15.7761 8 16 8.22386 16 8.5C16 8.77614 15.7761 9 15.5 9L3.5 9C3.22386 9 3 8.77614 3 8.5C3 8.22386 3.22386 8 3.5 8L15.5 8Z" fill="#F09637"/>
<rect x="17" y="2" width="1" height="17" rx="0.5" fill="#F09637"/>
<path d="M6.25 3H6.75V2.5H6.25V3ZM6.75 3V2.5H6.25V3H6.75ZM5 3.5H6.25V2.5H5V3.5ZM4.5 4C4.5 3.72386 4.72386 3.5 5 3.5V2.5C4.17157 2.5 3.5 3.17157 3.5 4H4.5ZM4.5 6V4H3.5V6H4.5ZM5 6.5C4.72386 6.5 4.5 6.27614 4.5 6H3.5C3.5 6.82843 4.17157 7.5 5 7.5V6.5ZM8 6.5H5V7.5H8V6.5ZM8.5 6C8.5 6.27614 8.27614 6.5 8 6.5V7.5C8.82843 7.5 9.5 6.82843 9.5 6H8.5ZM8.5 4V6H9.5V4H8.5ZM8 3.5C8.27614 3.5 8.5 3.72386 8.5 4H9.5C9.5 3.17157 8.82843 2.5 8 2.5V3.5ZM6.75 3.5H8V2.5H6.75V3.5ZM6.25 3V5H7.25V3H6.25ZM6.25 5C6.25 4.86193 6.36193 4.75 6.5 4.75V5.75C6.91421 5.75 7.25 5.41421 7.25 5H6.25ZM6.5 4.75C6.63807 4.75 6.75 4.86193 6.75 5H5.75C5.75 5.41421 6.08579 5.75 6.5 5.75V4.75ZM6.75 5V3H5.75V5H6.75Z" fill="#F09637"/>
<path d="M12.25 3H12.75V2.5H12.25V3ZM12.75 3V2.5H12.25V3H12.75ZM11 3.5H12.25V2.5H11V3.5ZM10.5 4C10.5 3.72386 10.7239 3.5 11 3.5V2.5C10.1716 2.5 9.5 3.17157 9.5 4H10.5ZM10.5 6V4H9.5V6H10.5ZM11 6.5C10.7239 6.5 10.5 6.27614 10.5 6H9.5C9.5 6.82843 10.1716 7.5 11 7.5V6.5ZM14 6.5H11V7.5H14V6.5ZM14.5 6C14.5 6.27614 14.2761 6.5 14 6.5V7.5C14.8284 7.5 15.5 6.82843 15.5 6H14.5ZM14.5 4V6H15.5V4H14.5ZM14 3.5C14.2761 3.5 14.5 3.72386 14.5 4H15.5C15.5 3.17157 14.8284 2.5 14 2.5V3.5ZM12.75 3.5H14V2.5H12.75V3.5ZM12.25 3V5H13.25V3H12.25ZM12.25 5C12.25 4.86193 12.3619 4.75 12.5 4.75V5.75C12.9142 5.75 13.25 5.41421 13.25 5H12.25ZM12.5 4.75C12.6381 4.75 12.75 4.86193 12.75 5H11.75C11.75 5.41421 12.0858 5.75 12.5 5.75V4.75ZM12.75 5V3H11.75V5H12.75Z" fill="#F09637"/>
<path d="M6.25 11H6.75V10.5H6.25V11ZM6.75 11V10.5H6.25V11H6.75ZM5 11.5H6.25V10.5H5V11.5ZM4.5 12C4.5 11.7239 4.72386 11.5 5 11.5V10.5C4.17157 10.5 3.5 11.1716 3.5 12H4.5ZM4.5 14V12H3.5V14H4.5ZM5 14.5C4.72386 14.5 4.5 14.2761 4.5 14H3.5C3.5 14.8284 4.17157 15.5 5 15.5V14.5ZM8 14.5H5V15.5H8V14.5ZM8.5 14C8.5 14.2761 8.27614 14.5 8 14.5V15.5C8.82843 15.5 9.5 14.8284 9.5 14H8.5ZM8.5 12V14H9.5V12H8.5ZM8 11.5C8.27614 11.5 8.5 11.7239 8.5 12H9.5C9.5 11.1716 8.82843 10.5 8 10.5V11.5ZM6.75 11.5H8V10.5H6.75V11.5ZM6.25 11V13H7.25V11H6.25ZM6.25 13C6.25 12.8619 6.36193 12.75 6.5 12.75V13.75C6.91421 13.75 7.25 13.4142 7.25 13H6.25ZM6.5 12.75C6.63807 12.75 6.75 12.8619 6.75 13H5.75C5.75 13.4142 6.08579 13.75 6.5 13.75V12.75ZM6.75 13V11H5.75V13H6.75Z" fill="#F09637"/>
<path d="M12.25 11H12.75V10.5H12.25V11ZM12.75 11V10.5H12.25V11H12.75ZM11 11.5H12.25V10.5H11V11.5ZM10.5 12C10.5 11.7239 10.7239 11.5 11 11.5V10.5C10.1716 10.5 9.5 11.1716 9.5 12H10.5ZM10.5 14V12H9.5V14H10.5ZM11 14.5C10.7239 14.5 10.5 14.2761 10.5 14H9.5C9.5 14.8284 10.1716 15.5 11 15.5V14.5ZM14 14.5H11V15.5H14V14.5ZM14.5 14C14.5 14.2761 14.2761 14.5 14 14.5V15.5C14.8284 15.5 15.5 14.8284 15.5 14H14.5ZM14.5 12V14H15.5V12H14.5ZM14 11.5C14.2761 11.5 14.5 11.7239 14.5 12H15.5C15.5 11.1716 14.8284 10.5 14 10.5V11.5ZM12.75 11.5H14V10.5H12.75V11.5ZM12.25 11V13H13.25V11H12.25ZM12.25 13C12.25 12.8619 12.3619 12.75 12.5 12.75V13.75C12.9142 13.75 13.25 13.4142 13.25 13H12.25ZM12.5 12.75C12.6381 12.75 12.75 12.8619 12.75 13H11.75C11.75 13.4142 12.0858 13.75 12.5 13.75V12.75ZM12.75 13V11H11.75V13H12.75Z" fill="#F09637"/>
</svg>
